<svg width="1416" height="942" viewBox="0 0 1416 942" fill="none" xmlns="http://www.w3.org/2000/svg">
<rect x="6" y="7" width="1403" height="492" fill="white"/>
<rect x="309" y="496" width="1100" height="439" fill="white"/>
<path d="M1026.5 935H1409V7.5H7V498H309V935H924.5L971.75 907L1019 879" stroke="black" stroke-width="14" stroke-linecap="round"/>
<rect x="1356" y="617" width="75" height="75" transform="rotate(90 1356 617)" fill="#979797"/>
<rect x="1345" y="589" width="10" height="50" rx="5" transform="rotate(90 1345 589)" fill="#979797"/>
<rect x="1345" y="710" width="10" height="50" rx="5" transform="rotate(90 1345 710)" fill="#979797"/>
<path d="M1306.58 671V667.932L1318.11 655.318C1319.46 653.841 1320.57 652.557 1321.45 651.466C1322.32 650.364 1322.97 649.33 1323.39 648.364C1323.82 647.386 1324.04 646.364 1324.04 645.295C1324.04 644.068 1323.74 643.006 1323.15 642.108C1322.57 641.21 1321.78 640.517 1320.76 640.028C1319.75 639.54 1318.62 639.295 1317.36 639.295C1316.01 639.295 1314.84 639.574 1313.84 640.131C1312.86 640.676 1312.09 641.443 1311.54 642.432C1311.01 643.42 1310.74 644.58 1310.74 645.909H1306.72C1306.72 643.864 1307.19 642.068 1308.13 640.523C1309.08 638.977 1310.36 637.773 1311.99 636.909C1313.62 636.045 1315.46 635.614 1317.49 635.614C1319.54 635.614 1321.35 636.045 1322.93 636.909C1324.51 637.773 1325.75 638.937 1326.64 640.403C1327.54 641.869 1327.99 643.5 1327.99 645.295C1327.99 646.58 1327.76 647.835 1327.29 649.062C1326.84 650.278 1326.04 651.636 1324.91 653.136C1323.78 654.625 1322.22 656.443 1320.22 658.591L1312.38 666.977V667.25H1328.61V671H1306.58Z" fill="black"/>
<rect x="113" y="79" width="150" height="150" fill="#979797"/>
<rect x="85" y="90" width="10" height="50" rx="5" fill="#979797"/>
<rect x="85" y="162" width="10" height="50" rx="5" fill="#979797"/>
<rect x="281" y="90" width="10" height="50" rx="5" fill="#979797"/>
<rect x="281" y="162" width="10" height="50" rx="5" fill="#979797"/>
<path d="M188.342 188.955C184.342 188.955 180.74 188.159 177.536 186.568C174.331 184.977 171.763 182.795 169.831 180.023C167.899 177.25 166.842 174.091 166.661 170.545H174.842C175.161 173.705 176.592 176.318 179.138 178.386C181.706 180.432 184.774 181.455 188.342 181.455C191.206 181.455 193.751 180.784 195.979 179.443C198.229 178.102 199.99 176.261 201.263 173.92C202.558 171.557 203.206 168.886 203.206 165.909C203.206 162.864 202.536 160.148 201.195 157.761C199.876 155.352 198.058 153.455 195.74 152.068C193.422 150.682 190.774 149.977 187.797 149.955C185.661 149.932 183.467 150.261 181.217 150.943C178.967 151.602 177.115 152.455 175.661 153.5L167.751 152.545L171.979 118.182H208.251V125.682H179.07L176.615 146.273H177.024C178.456 145.136 180.251 144.193 182.411 143.443C184.57 142.693 186.82 142.318 189.161 142.318C193.433 142.318 197.24 143.341 200.581 145.386C203.945 147.409 206.581 150.182 208.49 153.705C210.422 157.227 211.388 161.25 211.388 165.773C211.388 170.227 210.388 174.205 208.388 177.705C206.411 181.182 203.683 183.932 200.206 185.955C196.729 187.955 192.774 188.955 188.342 188.955Z" fill="black"/>
<rect x="1210" y="617" width="75" height="75" transform="rotate(90 1210 617)" fill="#979797"/>
<rect x="1199" y="589" width="10" height="50" rx="5" transform="rotate(90 1199 589)" fill="#979797"/>
<rect x="1199" y="710" width="10" height="50" rx="5" transform="rotate(90 1199 710)" fill="#979797"/>
<path d="M1176.23 636.091V671H1172V640.523H1171.8L1163.28 646.182V641.886L1172 636.091H1176.23Z" fill="black"/>
<rect x="1359" y="783" width="75" height="75" transform="rotate(90 1359 783)" fill="#979797"/>
<rect x="1348" y="755" width="10" height="50" rx="5" transform="rotate(90 1348 755)" fill="#979797"/>
<rect x="1348" y="876" width="10" height="50" rx="5" transform="rotate(90 1348 876)" fill="#979797"/>
<path d="M1307.9 834.841V831.364L1323.24 807.091H1325.76V812.477H1324.06L1312.47 830.818V831.091H1333.12V834.841H1307.9ZM1324.33 842V833.784V832.165V807.091H1328.35V842H1324.33Z" fill="black"/>
<rect x="1209" y="788" width="75" height="75" transform="rotate(90 1209 788)" fill="#979797"/>
<rect x="1198" y="760" width="10" height="50" rx="5" transform="rotate(90 1198 760)" fill="#979797"/>
<rect x="1198" y="881" width="10" height="50" rx="5" transform="rotate(90 1198 881)" fill="#979797"/>
<path d="M1171.63 842.477C1169.38 842.477 1167.37 842.091 1165.61 841.318C1163.86 840.545 1162.47 839.472 1161.43 838.097C1160.41 836.71 1159.86 835.102 1159.76 833.273H1164.06C1164.15 834.398 1164.54 835.369 1165.22 836.188C1165.9 836.994 1166.79 837.619 1167.89 838.062C1169 838.506 1170.22 838.727 1171.56 838.727C1173.06 838.727 1174.39 838.466 1175.55 837.943C1176.71 837.42 1177.62 836.693 1178.28 835.761C1178.93 834.83 1179.26 833.75 1179.26 832.523C1179.26 831.239 1178.95 830.108 1178.31 829.131C1177.67 828.142 1176.74 827.369 1175.51 826.812C1174.29 826.256 1172.79 825.977 1171.01 825.977H1168.22V822.227H1171.01C1172.4 822.227 1173.62 821.977 1174.66 821.477C1175.72 820.977 1176.54 820.273 1177.13 819.364C1177.74 818.455 1178.04 817.386 1178.04 816.159C1178.04 814.977 1177.78 813.949 1177.25 813.074C1176.73 812.199 1175.99 811.517 1175.04 811.028C1174.09 810.54 1172.98 810.295 1171.7 810.295C1170.49 810.295 1169.36 810.517 1168.29 810.96C1167.23 811.392 1166.37 812.023 1165.7 812.852C1165.03 813.67 1164.66 814.659 1164.61 815.818H1160.51C1160.58 813.989 1161.13 812.386 1162.17 811.011C1163.2 809.625 1164.55 808.545 1166.22 807.773C1167.91 807 1169.75 806.614 1171.76 806.614C1173.92 806.614 1175.78 807.051 1177.32 807.926C1178.87 808.79 1180.05 809.932 1180.88 811.352C1181.71 812.773 1182.13 814.307 1182.13 815.955C1182.13 817.92 1181.61 819.597 1180.58 820.983C1179.55 822.369 1178.16 823.33 1176.4 823.864V824.136C1178.61 824.5 1180.33 825.437 1181.57 826.949C1182.8 828.449 1183.42 830.307 1183.42 832.523C1183.42 834.42 1182.91 836.125 1181.87 837.636C1180.85 839.136 1179.45 840.318 1177.68 841.182C1175.91 842.045 1173.89 842.477 1171.63 842.477Z" fill="black"/>
<rect x="113" y="294" width="150" height="150" fill="#979797"/>
<rect x="85" y="308" width="10" height="50" rx="5" fill="#979797"/>
<rect x="85" y="380" width="10" height="50" rx="5" fill="#979797"/>
<rect x="281" y="308" width="10" height="50" rx="5" fill="#979797"/>
<rect x="281" y="380" width="10" height="50" rx="5" fill="#979797"/>
<path d="M188.001 335.227C190.865 335.25 193.729 335.795 196.592 336.864C199.456 337.932 202.07 339.705 204.433 342.182C206.797 344.636 208.695 347.989 210.126 352.239C211.558 356.489 212.274 361.818 212.274 368.227C212.274 374.432 211.683 379.943 210.501 384.761C209.342 389.557 207.661 393.602 205.456 396.898C203.274 400.193 200.615 402.693 197.479 404.398C194.365 406.102 190.842 406.955 186.911 406.955C183.001 406.955 179.513 406.182 176.445 404.636C173.399 403.068 170.899 400.898 168.945 398.125C167.013 395.33 165.774 392.091 165.229 388.409H173.547C174.297 391.614 175.786 394.261 178.013 396.352C180.263 398.42 183.229 399.455 186.911 399.455C192.297 399.455 196.547 397.102 199.661 392.398C202.797 387.693 204.365 381.045 204.365 372.455H203.82C202.547 374.364 201.036 376.011 199.286 377.398C197.536 378.784 195.592 379.852 193.456 380.602C191.32 381.352 189.047 381.727 186.638 381.727C182.638 381.727 178.967 380.739 175.626 378.761C172.308 376.761 169.649 374.023 167.649 370.545C165.672 367.045 164.683 363.045 164.683 358.545C164.683 354.273 165.638 350.364 167.547 346.818C169.479 343.25 172.183 340.409 175.661 338.295C179.161 336.182 183.274 335.159 188.001 335.227ZM188.001 342.727C185.138 342.727 182.558 343.443 180.263 344.875C177.99 346.284 176.183 348.193 174.842 350.602C173.524 352.989 172.865 355.636 172.865 358.545C172.865 361.455 173.501 364.102 174.774 366.489C176.07 368.852 177.831 370.739 180.058 372.148C182.308 373.534 184.865 374.227 187.729 374.227C189.888 374.227 191.899 373.807 193.763 372.966C195.626 372.102 197.251 370.932 198.638 369.455C200.047 367.955 201.149 366.261 201.945 364.375C202.74 362.466 203.138 360.477 203.138 358.409C203.138 355.682 202.479 353.125 201.161 350.739C199.865 348.352 198.07 346.42 195.774 344.943C193.501 343.466 190.911 342.727 188.001 342.727Z" fill="black"/>
<rect x="439" y="677" width="325" height="150" fill="#979797"/>
<rect x="517" y="649" width="10" height="50" rx="5" transform="rotate(90 517 649)" fill="#979797"/>
<rect x="517" y="845" width="10" height="50" rx="5" transform="rotate(90 517 845)" fill="#979797"/>
<rect x="661" y="649" width="10" height="50" rx="5" transform="rotate(90 661 649)" fill="#979797"/>
<rect x="661" y="845" width="10" height="50" rx="5" transform="rotate(90 661 845)" fill="#979797"/>
<rect x="733" y="649" width="10" height="50" rx="5" transform="rotate(90 733 649)" fill="#979797"/>
<rect x="733" y="845" width="10" height="50" rx="5" transform="rotate(90 733 845)" fill="#979797"/>
<rect x="589" y="649" width="10" height="50" rx="5" transform="rotate(90 589 649)" fill="#979797"/>
<rect x="589" y="845" width="10" height="50" rx="5" transform="rotate(90 589 845)" fill="#979797"/>
<path d="M578.398 719.182V789H569.943V728.045H569.534L552.489 739.364V730.773L569.943 719.182H578.398ZM622.068 789.955C617.568 789.955 613.557 789.182 610.034 787.636C606.534 786.091 603.75 783.943 601.682 781.193C599.636 778.42 598.523 775.205 598.341 771.545H606.932C607.114 773.795 607.886 775.739 609.25 777.375C610.614 778.989 612.398 780.239 614.602 781.125C616.807 782.011 619.25 782.455 621.932 782.455C624.932 782.455 627.591 781.932 629.909 780.886C632.227 779.841 634.045 778.386 635.364 776.523C636.682 774.659 637.341 772.5 637.341 770.045C637.341 767.477 636.705 765.216 635.432 763.261C634.159 761.284 632.295 759.739 629.841 758.625C627.386 757.511 624.386 756.955 620.841 756.955H615.25V749.455H620.841C623.614 749.455 626.045 748.955 628.136 747.955C630.25 746.955 631.898 745.545 633.08 743.727C634.284 741.909 634.886 739.773 634.886 737.318C634.886 734.955 634.364 732.898 633.318 731.148C632.273 729.398 630.795 728.034 628.886 727.057C627 726.08 624.773 725.591 622.205 725.591C619.795 725.591 617.523 726.034 615.386 726.92C613.273 727.784 611.545 729.045 610.205 730.705C608.864 732.341 608.136 734.318 608.023 736.636H599.841C599.977 732.977 601.08 729.773 603.148 727.023C605.216 724.25 607.92 722.091 611.261 720.545C614.625 719 618.318 718.227 622.341 718.227C626.659 718.227 630.364 719.102 633.455 720.852C636.545 722.58 638.92 724.864 640.58 727.705C642.239 730.545 643.068 733.614 643.068 736.909C643.068 740.841 642.034 744.193 639.966 746.966C637.92 749.739 635.136 751.659 631.614 752.727V753.273C636.023 754 639.466 755.875 641.943 758.898C644.42 761.898 645.659 765.614 645.659 770.045C645.659 773.841 644.625 777.25 642.557 780.273C640.511 783.273 637.716 785.636 634.17 787.364C630.625 789.091 626.591 789.955 622.068 789.955Z" fill="black"/>
<rect x="1333" y="336" width="150" height="150" transform="rotate(90 1333 336)" fill="#979797"/>
<rect x="1322" y="308" width="10" height="50" rx="5" transform="rotate(90 1322 308)" fill="#979797"/>
<rect x="1250" y="308" width="10" height="50" rx="5" transform="rotate(90 1250 308)" fill="#979797"/>
<rect x="1322" y="504" width="10" height="50" rx="5" transform="rotate(90 1322 504)" fill="#979797"/>
<rect x="1250" y="504" width="10" height="50" rx="5" transform="rotate(90 1250 504)" fill="#979797"/>
<path d="M1237.9 375.182V445H1229.44V384.045H1229.03L1211.99 395.364V386.773L1229.44 375.182H1237.9ZM1257.98 445V438.864L1281.02 413.636C1283.73 410.682 1285.95 408.114 1287.7 405.932C1289.45 403.727 1290.75 401.659 1291.59 399.727C1292.45 397.773 1292.89 395.727 1292.89 393.591C1292.89 391.136 1292.3 389.011 1291.11 387.216C1289.95 385.42 1288.36 384.034 1286.34 383.057C1284.32 382.08 1282.05 381.591 1279.52 381.591C1276.84 381.591 1274.5 382.148 1272.5 383.261C1270.52 384.352 1268.99 385.886 1267.9 387.864C1266.83 389.841 1266.3 392.159 1266.3 394.818H1258.25C1258.25 390.727 1259.19 387.136 1261.08 384.045C1262.97 380.955 1265.53 378.545 1268.78 376.818C1272.06 375.091 1275.73 374.227 1279.8 374.227C1283.89 374.227 1287.51 375.091 1290.67 376.818C1293.83 378.545 1296.31 380.875 1298.1 383.807C1299.9 386.739 1300.8 390 1300.8 393.591C1300.8 396.159 1300.33 398.67 1299.4 401.125C1298.49 403.557 1296.9 406.273 1294.62 409.273C1292.38 412.25 1289.25 415.886 1285.25 420.182L1269.57 436.955V437.5H1302.02V445H1257.98Z" fill="black"/>
<rect x="1067" y="331" width="150" height="150" transform="rotate(90 1067 331)" fill="#979797"/>
<rect x="1056" y="303" width="10" height="50" rx="5" transform="rotate(90 1056 303)" fill="#979797"/>
<rect x="984" y="303" width="10" height="50" rx="5" transform="rotate(90 984 303)" fill="#979797"/>
<rect x="1056" y="499" width="10" height="50" rx="5" transform="rotate(90 1056 499)" fill="#979797"/>
<rect x="984" y="499" width="10" height="50" rx="5" transform="rotate(90 984 499)" fill="#979797"/>
<path d="M978.648 374.182V444H970.193V383.045H969.784L952.739 394.364V385.773L970.193 374.182H978.648ZM1023.27 374.182V444H1014.82V383.045H1014.41L997.364 394.364V385.773L1014.82 374.182H1023.27Z" fill="black"/>
<rect x="727" y="491" width="250" height="150" transform="rotate(-180 727 491)" fill="#979797"/>
<rect x="649" y="519" width="10" height="50" rx="5" transform="rotate(-90 649 519)" fill="#979797"/>
<rect x="649" y="323" width="10" height="50" rx="5" transform="rotate(-90 649 323)" fill="#979797"/>
<rect x="505" y="519" width="10" height="50" rx="5" transform="rotate(-90 505 519)" fill="#979797"/>
<rect x="505" y="323" width="10" height="50" rx="5" transform="rotate(-90 505 323)" fill="#979797"/>
<rect x="577" y="519" width="10" height="50" rx="5" transform="rotate(-90 577 519)" fill="#979797"/>
<rect x="577" y="323" width="10" height="50" rx="5" transform="rotate(-90 577 323)" fill="#979797"/>
<path d="M579.46 385.182V455H571.006V394.045H570.597L553.551 405.364V396.773L571.006 385.182H579.46ZM622.312 455.955C617.176 455.955 612.801 454.557 609.188 451.761C605.574 448.943 602.813 444.864 600.903 439.523C598.994 434.159 598.04 427.682 598.04 420.091C598.04 412.545 598.994 406.102 600.903 400.761C602.835 395.398 605.608 391.307 609.222 388.489C612.858 385.648 617.222 384.227 622.312 384.227C627.403 384.227 631.756 385.648 635.369 388.489C639.006 391.307 641.778 395.398 643.688 400.761C645.619 406.102 646.585 412.545 646.585 420.091C646.585 427.682 645.631 434.159 643.722 439.523C641.812 444.864 639.051 448.943 635.438 451.761C631.824 454.557 627.449 455.955 622.312 455.955ZM622.312 448.455C627.403 448.455 631.358 446 634.176 441.091C636.994 436.182 638.403 429.182 638.403 420.091C638.403 414.045 637.756 408.898 636.46 404.648C635.188 400.398 633.347 397.159 630.938 394.932C628.551 392.705 625.676 391.591 622.312 391.591C617.267 391.591 613.324 394.08 610.483 399.057C607.642 404.011 606.222 411.023 606.222 420.091C606.222 426.136 606.858 431.273 608.131 435.5C609.403 439.727 611.233 442.943 613.619 445.148C616.028 447.352 618.926 448.455 622.312 448.455Z" fill="black"/>
<rect x="1333" y="79" width="150" height="150" transform="rotate(90 1333 79)" fill="#979797"/>
<rect x="1322" y="51" width="10" height="50" rx="5" transform="rotate(90 1322 51)" fill="#979797"/>
<rect x="1250" y="51" width="10" height="50" rx="5" transform="rotate(90 1250 51)" fill="#979797"/>
<rect x="1322" y="247" width="10" height="50" rx="5" transform="rotate(90 1322 247)" fill="#979797"/>
<rect x="1250" y="247" width="10" height="50" rx="5" transform="rotate(90 1250 247)" fill="#979797"/>
<path d="M1257.51 188.955C1252.83 188.955 1248.69 188.125 1245.1 186.466C1241.54 184.784 1238.75 182.477 1236.75 179.545C1234.75 176.591 1233.76 173.227 1233.79 169.455C1233.76 166.5 1234.34 163.773 1235.52 161.273C1236.71 158.75 1238.32 156.648 1240.37 154.966C1242.43 153.261 1244.74 152.182 1247.29 151.727V151.318C1243.94 150.455 1241.29 148.58 1239.31 145.693C1237.33 142.784 1236.35 139.477 1236.38 135.773C1236.35 132.227 1237.25 129.057 1239.07 126.261C1240.89 123.466 1243.39 121.261 1246.57 119.648C1249.77 118.034 1253.42 117.227 1257.51 117.227C1261.56 117.227 1265.17 118.034 1268.35 119.648C1271.54 121.261 1274.04 123.466 1275.85 126.261C1277.69 129.057 1278.63 132.227 1278.65 135.773C1278.63 139.477 1277.62 142.784 1275.62 145.693C1273.64 148.58 1271.01 150.455 1267.74 151.318V151.727C1270.26 152.182 1272.54 153.261 1274.56 154.966C1276.58 156.648 1278.19 158.75 1279.4 161.273C1280.6 163.773 1281.22 166.5 1281.24 169.455C1281.22 173.227 1280.19 176.591 1278.17 179.545C1276.17 182.477 1273.39 184.784 1269.82 186.466C1266.27 188.125 1262.17 188.955 1257.51 188.955ZM1257.51 181.455C1260.67 181.455 1263.4 180.943 1265.69 179.92C1267.99 178.898 1269.76 177.455 1271.01 175.591C1272.26 173.727 1272.9 171.545 1272.92 169.045C1272.9 166.409 1272.22 164.08 1270.88 162.057C1269.54 160.034 1267.71 158.443 1265.39 157.284C1263.09 156.125 1260.47 155.545 1257.51 155.545C1254.54 155.545 1251.88 156.125 1249.54 157.284C1247.22 158.443 1245.39 160.034 1244.05 162.057C1242.73 164.08 1242.08 166.409 1242.1 169.045C1242.08 171.545 1242.68 173.727 1243.91 175.591C1245.16 177.455 1246.94 178.898 1249.26 179.92C1251.58 180.943 1254.33 181.455 1257.51 181.455ZM1257.51 148.318C1260.01 148.318 1262.23 147.818 1264.16 146.818C1266.12 145.818 1267.65 144.42 1268.76 142.625C1269.88 140.83 1270.44 138.727 1270.47 136.318C1270.44 133.955 1269.89 131.898 1268.8 130.148C1267.71 128.375 1266.19 127.011 1264.26 126.057C1262.33 125.08 1260.08 124.591 1257.51 124.591C1254.9 124.591 1252.62 125.08 1250.66 126.057C1248.71 127.011 1247.19 128.375 1246.13 130.148C1245.06 131.898 1244.54 133.955 1244.56 136.318C1244.54 138.727 1245.07 140.83 1246.16 142.625C1247.27 144.42 1248.81 145.818 1250.76 146.818C1252.72 147.818 1254.97 148.318 1257.51 148.318Z" fill="black"/>
<rect x="1067" y="79" width="150" height="150" transform="rotate(90 1067 79)" fill="#979797"/>
<rect x="1056" y="51" width="10" height="50" rx="5" transform="rotate(90 1056 51)" fill="#979797"/>
<rect x="984" y="51" width="10" height="50" rx="5" transform="rotate(90 984 51)" fill="#979797"/>
<rect x="1056" y="247" width="10" height="50" rx="5" transform="rotate(90 1056 247)" fill="#979797"/>
<rect x="984" y="247" width="10" height="50" rx="5" transform="rotate(90 984 247)" fill="#979797"/>
<path d="M973.487 188L1004.71 126.227V125.682H968.714V118.182H1013.44V126.091L982.351 188H973.487Z" fill="black"/>
<rect x="727" y="229" width="250" height="150" transform="rotate(-180 727 229)" fill="#979797"/>
<rect x="649" y="257" width="10" height="50" rx="5" transform="rotate(-90 649 257)" fill="#979797"/>
<rect x="649" y="61" width="10" height="50" rx="5" transform="rotate(-90 649 61)" fill="#979797"/>
<rect x="505" y="257" width="10" height="50" rx="5" transform="rotate(-90 505 257)" fill="#979797"/>
<rect x="505" y="61" width="10" height="50" rx="5" transform="rotate(-90 505 61)" fill="#979797"/>
<rect x="577" y="257" width="10" height="50" rx="5" transform="rotate(-90 577 257)" fill="#979797"/>
<rect x="577" y="61" width="10" height="50" rx="5" transform="rotate(-90 577 61)" fill="#979797"/>
<path d="M601.956 188.955C599.092 188.909 596.229 188.364 593.365 187.318C590.501 186.273 587.888 184.511 585.524 182.034C583.161 179.534 581.263 176.159 579.831 171.909C578.399 167.636 577.683 162.273 577.683 155.818C577.683 149.636 578.263 144.159 579.422 139.386C580.581 134.591 582.263 130.557 584.467 127.284C586.672 123.989 589.331 121.489 592.445 119.784C595.581 118.08 599.115 117.227 603.047 117.227C606.956 117.227 610.433 118.011 613.479 119.58C616.547 121.125 619.047 123.284 620.979 126.057C622.911 128.83 624.161 132.023 624.729 135.636H616.411C615.638 132.5 614.138 129.898 611.911 127.83C609.683 125.761 606.729 124.727 603.047 124.727C597.638 124.727 593.376 127.08 590.263 131.784C587.172 136.489 585.615 143.091 585.592 151.591H586.138C587.411 149.659 588.922 148.011 590.672 146.648C592.445 145.261 594.399 144.193 596.536 143.443C598.672 142.693 600.933 142.318 603.32 142.318C607.32 142.318 610.979 143.318 614.297 145.318C617.615 147.295 620.274 150.034 622.274 153.534C624.274 157.011 625.274 161 625.274 165.5C625.274 169.818 624.308 173.773 622.376 177.364C620.445 180.932 617.729 183.773 614.229 185.886C610.751 187.977 606.661 189 601.956 188.955ZM601.956 181.455C604.82 181.455 607.388 180.739 609.661 179.307C611.956 177.875 613.763 175.955 615.081 173.545C616.422 171.136 617.092 168.455 617.092 165.5C617.092 162.614 616.445 159.989 615.149 157.625C613.876 155.239 612.115 153.341 609.865 151.932C607.638 150.523 605.092 149.818 602.229 149.818C600.07 149.818 598.058 150.25 596.195 151.114C594.331 151.955 592.695 153.114 591.286 154.591C589.899 156.068 588.808 157.761 588.013 159.67C587.217 161.557 586.82 163.545 586.82 165.636C586.82 168.409 587.467 171 588.763 173.409C590.081 175.818 591.876 177.761 594.149 179.239C596.445 180.716 599.047 181.455 601.956 181.455Z" fill="black"/>
</svg>
